<svg fill="none" height="90" viewBox="0 0 52 90" width="52" xmlns="http://www.w3.org/2000/svg"><path d="m30.5258 52.0938-12.742-13.0336-4.2076-4.304c-.7387-1.1186-1.3262-2.3342-1.7466-3.6137h39.6947c.3063-1.6185.4526-3.2645.4366-4.913.0027-1.8844-.197-3.7634-.5954-5.6032-1.2707-5.8311-4.4465-11.04496-9.0036-14.78162-4.557-3.73666-10.2231-5.7729027-16.0635-5.7729027-5.8405 0-11.5066 2.0362427-16.0636 5.7729027-4.55705 3.73666-7.73285 8.95052-9.0036 14.78162-.379477 1.8429-.578936 3.7199-.595425 5.6032-.002651 1.6499.156911 3.2958.476315 4.913.70805 3.9323 2.29779 7.6432 4.6443 10.8411l22.62601 23.1032 23.8168 24.362v-15.3887zm-4.4061-41.2529c3.0269-.0002 5.9835.9337 8.4834 2.6794 2.4998 1.7458 4.4267 4.2223 5.5288 7.106h-28.0244c1.0947-2.8644 3.0034-5.3276 5.4797-7.0718 2.4764-1.7442 5.4069-2.6894 8.4135-2.7136z" fill="#f8ede4"/></svg>