<svg fill="none" height="89" viewBox="0 0 52 89" width="52" xmlns="http://www.w3.org/2000/svg"><path d="m51.643 63.689c-.2609 6.7833-3.0787 13.2-7.8629 17.9049-4.7841 4.7049-11.1631 7.3328-17.7997 7.3328-6.6367 0-13.0156-2.6279-17.79977-7.3328-4.78414-4.7049-7.60199-11.1216-7.862853-17.9049.016489-1.8833.215949-3.7603.595426-5.6032h11.074797c-.6887 1.7838-1.0389 3.6854-1.032 5.6032 0 4.0813 1.585 7.9955 4.4063 10.8814 2.8214 2.886 6.6479 4.5072 10.6379 4.5072s7.8166-1.6212 10.6379-4.5072c2.8214-2.8859 4.4064-6.8001 4.4064-10.8814.012-2.3839-.5324-4.7364-1.5878-6.8619l-6.7481-6.9432-11.9084-11.9373-20.998442-21.5198v-16.241253l41.361742 42.308553 5.1604 5.2379c3.452 4.5695 5.323 10.1822 5.3191 15.957z" fill="#f8ede4"/></svg>